<svg xmlns="http://www.w3.org/2000/svg" viewBox="0 0 48 48" width="48" height="48" role="img" aria-label="IRC Chat">
  <!-- Back speech bubble (channel) -->
  <path d="M14 6h22a6 6 0 0 1 6 6v12a6 6 0 0 1-6 6H26l-7 6v-6h-5a6 6 0 0 1-6-6V12a6 6 0 0 1 6-6z" fill="#5865F2"/>
  <!-- Channel hash + chat lines -->
  <g fill="#FFFFFF">
    <rect x="17" y="12" width="3.2" height="13" rx="1.2"/>
    <rect x="24" y="12" width="3.2" height="13" rx="1.2"/>
    <rect x="14.5" y="15.6" width="16" height="3" rx="1.4" transform="rotate(-2 22 17)"/>
    <rect x="14.5" y="20.4" width="16" height="3" rx="1.4" transform="rotate(-2 22 22)"/>
  </g>
  <!-- Front DM bubble (message a friend) -->
  <path d="M30 26h8a4 4 0 0 1 4 4v6a4 4 0 0 1-4 4h-2v4l-5-4h-1a4 4 0 0 1-4-4v-6a4 4 0 0 1 4-4z" fill="#23A55A"/>
  <circle cx="32.6" cy="33" r="1.7" fill="#FFFFFF"/>
  <circle cx="37" cy="33" r="1.7" fill="#FFFFFF"/>
</svg>
