<svg xmlns="http://www.w3.org/2000/svg" viewBox="0 0 64 64" fill="none">
  <rect width="64" height="64" rx="12" fill="#336791"/>
  <ellipse cx="30" cy="30" rx="14" ry="16" fill="white" opacity="0.9" stroke="#336791" stroke-width="2"/>
  <path d="M38 20 c6 2 10 8 10 14 c0 8-4 14-8 16" stroke="white" stroke-width="2.5" fill="none" opacity="0.7"/>
  <path d="M26 46 c-2 4-1 8 2 8 c3 0 4-3 4-6" stroke="white" stroke-width="2" fill="none" opacity="0.7"/>
  <path d="M40 44 c2 4 4 6 6 6 c3 0 2-4 1-7" stroke="white" stroke-width="2" fill="none" opacity="0.7"/>
  <circle cx="25" cy="28" r="3" fill="#336791"/>
  <path d="M22 36 c3 3 8 3 11 0" stroke="#336791" stroke-width="1.5" fill="none"/>
</svg>
